Coordinates
version=1
nRows=16
nColumns=40
inDegrees=yes

Units are S.I. units (second, meters, Newtons, ...)
If the header above contains a line with 'inDegrees', this indicates whether rotational values are in degrees (yes) or radians (no).

endheader
time	pelvis_tilt	pelvis_list	pelvis_rotation	pelvis_tx	pelvis_ty	pelvis_tz	hip_flexion_r	hip_adduction_r	hip_rotation_r	knee_angle_r	knee_angle_r_beta	ankle_angle_r	subtalar_angle_r	mtp_angle_r	hip_flexion_l	hip_adduction_l	hip_rotation_l	knee_angle_l	knee_angle_l_beta	ankle_angle_l	subtalar_angle_l	mtp_angle_l	lumbar_extension	lumbar_bending	lumbar_rotation	arm_flex_r	arm_add_r	arm_rot_r	elbow_flex_r	pro_sup_r	wrist_flex_r	wrist_dev_r	arm_flex_l	arm_add_l	arm_rot_l	elbow_flex_l	pro_sup_l	wrist_flex_l	wrist_dev_l
      3.94500000	    -29.45693555	      2.26307560	      5.12405607	      0.14463225	      0.65058714	     -1.16708193	     86.93714685	    -46.26156177	     -2.16929124	     81.25904256	      1.41823784	     23.18145340	      2.25130443	      0.00000000	     84.74464806	    -33.09803669	     -5.57872438	     76.10783953	      1.32833239	     21.52736994	     13.14428294	      0.00000000	      0.00000000	      0.00000000	      0.00000000	     34.90053685	    -13.75721714	     34.90053685	     75.79090833	     44.98232177	      0.00000000	      0.00000000	     34.90053685	    -13.75721714	     34.90053685	     75.79090833	     44.98232177	      0.00000000	      0.00000000
      3.95000000	    -29.51764771	      2.20560119	      5.13534580	      0.14475689	      0.64879871	     -1.16694127	     87.24309614	    -46.30621214	     -2.01827597	     81.59892651	      1.42416993	     23.29594114	      2.24283527	      0.00000000	     85.10825147	    -33.16979831	     -5.33523855	     76.43109977	      1.33397434	     21.63548926	     13.21515464	      0.00000000	      0.00000000	      0.00000000	      0.00000000	     35.01752471	    -13.78034343	     35.01752471	     75.76356324	     44.98377827	      0.00000000	      0.00000000	     35.01752471	    -13.78034343	     35.01752471	     75.76356324	     44.98377827	      0.00000000	      0.00000000
      3.95500000	    -29.53209451	      2.15359155	      5.15550186	      0.14491969	      0.64715161	     -1.16683389	     87.48149075	    -46.36723689	     -1.87547596	     81.92471879	      1.42985608	     23.43544850	      2.28506840	      0.00000000	     85.40777125	    -33.22442184	     -5.10756305	     76.74363949	      1.33942919	     21.75151796	     13.25061677	      0.00000000	      0.00000000	      0.00000000	      0.00000000	     35.14604256	    -13.80553242	     35.14604256	     75.73436593	     44.98524228	      0.00000000	      0.00000000	     35.14604256	    -13.80553242	     35.14604256	     75.73436593	     44.98524228	      0.00000000	      0.00000000
      3.96000000	    -29.31334878	      2.13009082	      4.80296327	      0.14523926	      0.64608293	     -1.16591531	     87.43825946	    -45.97328188	     -1.75021773	     82.19717552	      1.43461135	     23.46242257	      1.98539012	      0.00000000	     85.40098047	    -33.78775398	     -5.03638921	     77.07785504	      1.34526235	     21.91821020	     13.57450740	      0.00000000	      0.00000000	      0.00000000	      0.00000000	     35.25129923	    -13.82594016	     35.25129923	     75.71130119	     44.98631256	      0.00000000	      0.00000000	     35.25129923	    -13.82594016	     35.25129923	     75.71130119	     44.98631256	      0.00000000	      0.00000000
      3.96500000	    -29.40605692	      2.14763296	      5.12127475	      0.14536823	      0.64424867	     -1.16633991	     87.86392393	    -46.41913065	     -1.48276092	     82.57842916	      1.44126548	     23.73422174	      2.38704430	      0.00000000	     85.73052702	    -33.43000638	     -4.81650058	     77.34095065	      1.34985424	     21.99232929	     13.34715469	      0.00000000	      0.00000000	      0.00000000	      0.00000000	     35.37245327	    -13.84934664	     35.37245327	     75.68506668	     44.98749809	      0.00000000	      0.00000000	     35.37245327	    -13.84934664	     35.37245327	     75.68506668	     44.98749809	      0.00000000	      0.00000000
      3.97000000	    -29.40789750	      2.10586349	      5.13707758	      0.14554788	      0.64263444	     -1.16623781	     88.09364201	    -46.47579243	     -1.32521536	     82.89638692	      1.44681489	     23.88623871	      2.43263280	      0.00000000	     86.00620853	    -33.47714176	     -4.59423521	     77.64842915	      1.35522075	     22.11991941	     13.37609094	      0.00000000	      0.00000000	      0.00000000	      0.00000000	     35.49448351	    -13.87269983	     35.49448351	     75.65945485	     44.98858428	      0.00000000	      0.00000000	     35.49448351	    -13.87269983	     35.49448351	     75.65945485	     44.98858428	      0.00000000	      0.00000000
      3.97500000	    -29.43165365	      2.09832389	      5.12974248	      0.14571334	      0.64095842	     -1.16605707	     88.40095583	    -46.50542850	     -1.10430208	     83.22415964	      1.45253560	     24.02211207	      2.46205983	      0.00000000	     86.27498598	    -33.54624647	     -4.41875157	     77.95649752	      1.36059756	     22.24384995	     13.39163369	      0.00000000	      0.00000000	      0.00000000	      0.00000000	     35.61055537	    -13.89476649	     35.61055537	     75.63561789	     44.98955064	      0.00000000	      0.00000000	     35.61055537	    -13.89476649	     35.61055537	     75.63561789	     44.98955064	      0.00000000	      0.00000000
      3.98000000	    -29.40807723	      2.06336435	      5.12189968	      0.14588946	      0.63940581	     -1.16589524	     88.60940863	    -46.53466706	     -0.94210015	     83.54547527	      1.45814362	     24.15780660	      2.50012965	      0.00000000	     86.51805988	    -33.61850938	     -4.20284372	     78.26157229	      1.36592211	     22.35694861	     13.41360524	      0.00000000	      0.00000000	      0.00000000	      0.00000000	     35.72327449	    -13.91603887	     35.72327449	     75.61302510	     44.99042098	      0.00000000	      0.00000000	     35.72327449	    -13.91603887	     35.72327449	     75.61302510	     44.99042098	      0.00000000	      0.00000000
      3.98500000	    -29.37134896	      2.06691983	      5.09089509	      0.14609171	      0.63789654	     -1.16563448	     88.84498903	    -46.54628119	     -0.73804065	     83.86684402	      1.46375256	     24.27672645	      2.53875844	      0.00000000	     86.69339403	    -33.71407535	     -4.04257644	     78.54340294	      1.37084099	     22.50915774	     13.47412495	      0.00000000	      0.00000000	      0.00000000	      0.00000000	     35.83071730	    -13.93615064	     35.83071730	     75.59206361	     44.99118396	      0.00000000	      0.00000000	     35.83071730	    -13.93615064	     35.83071730	     75.59206361	     44.99118396	      0.00000000	      0.00000000
      3.99000000	    -29.51053742	      1.98981395	      5.11833445	      0.14611069	      0.63593341	     -1.16563760	     89.23571310	    -46.59480168	     -0.57628877	     84.19388692	      1.46946054	     24.37892480	      2.51488870	      0.00000000	     87.18188612	    -33.71094942	     -3.72513841	     78.88100159	      1.37673320	     22.57787782	     13.41189761	      0.00000000	      0.00000000	      0.00000000	      0.00000000	     35.96328690	    -13.96082835	     35.96328690	     75.56666549	     44.99207499	      0.00000000	      0.00000000	     35.96328690	    -13.96082835	     35.96328690	     75.56666549	     44.99207499	      0.00000000	      0.00000000
      3.99500000	    -29.46899824	      1.98055212	      5.09196027	      0.14632515	      0.63442161	     -1.16542534	     89.44108813	    -46.61850297	     -0.39396391	     84.50689402	      1.47492354	     24.53745664	      2.60266085	      0.00000000	     87.37139284	    -33.80033804	     -3.54746020	     79.17192275	      1.38181073	     22.72202341	     13.44932098	      0.00000000	      0.00000000	      0.00000000	      0.00000000	     36.07225124	    -13.98095313	     36.07225124	     75.54632802	     44.99274920	      0.00000000	      0.00000000	     36.07225124	    -13.98095313	     36.07225124	     75.54632802	     44.99274920	      0.00000000	      0.00000000
      4.00000000	    -29.38790953	      1.98121416	      5.05640407	      0.14658396	      0.63299454	     -1.16519634	     89.60722405	    -46.63823536	     -0.20687864	     84.81893913	      1.48036976	     24.70465521	      2.68946511	      0.00000000	     87.51067067	    -33.90702510	     -3.39379278	     79.47103812	      1.38703128	     22.85905390	     13.47833206	      0.00000000	      0.00000000	      0.00000000	      0.00000000	     36.17650217	    -14.00002300	     36.17650217	     75.52748122	     44.99333304	      0.00000000	      0.00000000	     36.17650217	    -14.00002300	     36.17650217	     75.52748122	     44.99333304	      0.00000000	      0.00000000
      4.00500000	    -29.47877265	      1.93721670	      5.05631728	      0.14664759	      0.63112965	     -1.16509930	     89.97295530	    -46.67559681	     -0.02568579	     85.14683736	      1.48609266	     24.80289682	      2.71197505	      0.00000000	     87.90194316	    -33.93756196	     -3.12742163	     79.78574520	      1.39252395	     22.97051155	     13.45166288	      0.00000000	      0.00000000	      0.00000000	      0.00000000	     36.28222723	    -14.01928031	     36.28222723	     75.50863205	     44.99390046	      0.00000000	      0.00000000	     36.28222723	    -14.01928031	     36.28222723	     75.50863205	     44.99390046	      0.00000000	      0.00000000
      4.01000000	    -29.38799007	      1.96251396	      5.00373046	      0.14689454	      0.62971778	     -1.16480348	     90.15702345	    -46.67875475	      0.19455613	     85.45722197	      1.49150989	     24.96376141	      2.79770443	      0.00000000	     88.00828450	    -34.06387837	     -3.00689514	     80.07717186	      1.39761030	     23.09739953	     13.48447871	      0.00000000	      0.00000000	      0.00000000	      0.00000000	     36.39145929	    -14.03894369	     36.39145929	     75.48990148	     44.99441987	      0.00000000	      0.00000000	     36.39145929	    -14.03894369	     36.39145929	     75.48990148	     44.99441987	      0.00000000	      0.00000000
      4.01500000	    -29.40592935	      1.95204645	      4.97970724	      0.14706032	      0.62803422	     -1.16460969	     90.45426049	    -46.70614843	      0.39773170	     85.78302892	      1.49719630	     25.12280710	      2.88653704	      0.00000000	     88.27634944	    -34.13962403	     -2.81338919	     80.37915103	      1.40288084	     23.21500309	     13.48515814	      0.00000000	      0.00000000	      0.00000000	      0.00000000	     36.49505359	    -14.05747920	     36.49505359	     75.47248654	     44.99488372	      0.00000000	      0.00000000	     36.49505359	    -14.05747920	     36.49505359	     75.47248654	     44.99488372	      0.00000000	      0.00000000
      4.02000000	    -29.39786116	      1.93192612	      4.94080475	      0.14723823	      0.62640035	     -1.16438838	     90.70276431	    -46.71474945	      0.57883943	     86.10105730	      1.50274694	     25.25347302	      2.96317811	      0.00000000	     88.52460424	    -34.24326288	     -2.61743013	     80.68044943	      1.40813948	     23.33841261	     13.50337308	      0.00000000	      0.00000000	      0.00000000	      0.00000000	     36.59412870	    -14.07507337	     36.59412870	     75.45623665	     44.99529518	      0.00000000	      0.00000000	     36.59412870	    -14.07507337	     36.59412870	     75.45623665	     44.99529518	      0.00000000	      0.00000000
